<svg xmlns="http://www.w3.org/2000/svg" width="800.06" height="141.5" viewBox="0 0 800.06 141.5">
  <g transform="matrix(6.3000333,0,0,6.3000333,-466.20247,-560.70296)">
    <path d="M 71.768,0 70.615,3.167 62.571,4.731 55.453,0.283 52.963,4.269 49.319,0.222 46.066,3.151 35.222,0.1 34.571,2.418 19.718,0.1 19.272,2.95 1.07,0.1 0.2,5.639 l 31.952,5 L 0,16.893 1.071,22.4 16.9,19.325 l 0.637,3.076 13.457,-2.787 0.5,2.4 13.732,-2.869 0.536,2.681 13.1,-2.618 2.528,2.807 3.878,-3.492 5.056,1.84 1.237,-3.4 8.7,5.434 2.025,-3.241 11.528,3.244 0.566,-2.015 12.865,2.015 0.446,-2.85 18.2,2.85 0.868,-5.544 L 95.3,11.931 126.993,5.6 125.893,0.1 109.664,3.338 108.987,0.095 98.039,2.382 97.566,0.1 85.387,2.619 84.952,0.38 77.039,1.918 Z" transform="translate(74,89)" style="fill:#000"></path>
  </g>
</svg>
